<?xml version="1.0" encoding="UTF-8"?>
<!DOCTYPE svg PUBLIC "-//W3C//DTD SVG 1.1//EN" "http://www.w3.org/Graphics/SVG/1.1/DTD/svg11.dtd">
<!-- Creator: CorelDRAW -->
<svg xmlns="http://www.w3.org/2000/svg" xml:space="preserve" width="600px" height="378px" style="shape-rendering:geometricPrecision; text-rendering:geometricPrecision; image-rendering:optimizeQuality; fill-rule:evenodd; clip-rule:evenodd"
viewBox="0 0 2651.96 1673.13"
 xmlns:xlink="http://www.w3.org/1999/xlink">
 <defs>
  <style type="text/css">
   <![CDATA[
    .str0 {stroke:#0083C1;stroke-width:23.7393;stroke-linecap:round;stroke-linejoin:round}
    .fil0 {fill:#0068A9}
    .fil1 {fill:#ECF1F3}
   ]]>
  </style>
 </defs>
 <g id="Ebene_x0020_1">
  <metadata id="CorelCorpID_0Corel-Layer"/>
  <rect class="fil0 str0" transform="matrix(1.17824 0.754784 -1.40966 0.866448 1308.12 -99.5823)" width="1280.77" height="1045.17" rx="235.165" ry="235.165"/>
  <path class="fil1" d="M662.56 1065.03l274.996 9.30728c0,0 196.348,-335.304 196.348,-335.304l109.426 -0.693167 -183.195 351.106 373.755 2.23092 -41.7852 89.9838 -406.23 -0.235542 -54.8376 129.333 678.722 -2.08287 390.953 -698.739 -279.693 -6.66584c0,0 -199.817,357.072 -199.817,357.072l-113.471 -1.61851 205.686 -348.788 -392.201 -2.23765 41.7852 -89.9771 376.481 6.16784 103.036 -135.265 -685.781 -1.97855 -394.176 678.385z"/>
 </g>
</svg>
